<svg xmlns="http://www.w3.org/2000/svg" width="244" height="36" fill="none" viewBox="0 0 244 36"><g clip-path="url(#a)"><path fill="#0076ff" d="m51.461 26.039-4.658-8.323h-1.31v8.323H40.03V3.975h9.162c1.761 0 3.27.304 4.514.91s2.18 1.442 2.797 2.493c.617 1.062.925 2.232.925 3.533 0 1.463-.418 2.774-1.266 3.923-.837 1.148-2.081 1.972-3.722 2.449l5.176 8.734H51.45zM45.493 13.9h3.38c1.002 0 1.751-.238 2.247-.726.495-.476.748-1.159.748-2.037s-.253-1.495-.748-1.983c-.496-.477-1.256-.726-2.247-.726h-3.38zm15.216-1.37c.693-1.363 1.629-2.4 2.829-3.136 1.189-.735 2.52-1.092 3.985-1.092q1.883-.002 3.302.757c.947.508 1.674 1.157 2.19 1.979V8.561h5.46v17.491h-5.46v-2.476c-.528.811-1.276 1.47-2.223 1.979-.946.497-2.047.756-3.302.756-1.442 0-2.763-.367-3.963-1.113-1.189-.746-2.136-1.794-2.83-3.167-.693-1.373-1.034-2.952-1.034-4.746s.341-3.373 1.035-4.735zm11.173 1.6c-.76-.78-1.673-1.157-2.763-1.157s-2.003.378-2.763 1.145c-.76.768-1.134 1.817-1.134 3.146 0 1.33.374 2.4 1.134 3.178.76.79 1.673 1.179 2.763 1.179s2.004-.39 2.763-1.157c.76-.767 1.134-1.827 1.134-3.167s-.374-2.39-1.134-3.168m20.408 7.348v4.562h-2.782c-1.988 0-3.534-.477-4.65-1.43-1.115-.954-1.667-2.514-1.667-4.67V12.96h-2.176V8.496h2.176V4.227h5.477v4.27h3.59v4.463h-3.59v7.043c0 .52.133.9.387 1.127.254.228.685.347 1.281.347zm3.342-15.665c-.611-.554-.922-1.248-.922-2.062s.31-1.541.922-2.094c.61-.554 1.4-.836 2.366-.836s1.721.282 2.332.836c.611.553.922 1.258.922 2.094s-.311 1.508-.922 2.062c-.61.553-1.388.835-2.332.835-.945 0-1.755-.282-2.366-.835m5.098 2.658v17.558h-5.51V8.47zm19.718 1.876c1.244 1.33 1.872 3.156 1.872 5.469v10.213h-5.429v-9.5q0-1.75-.925-2.723c-.616-.649-1.453-.973-2.488-.973s-1.872.324-2.489.973q-.925.972-.925 2.723v9.5h-5.461V8.54h5.461v2.324c.551-.768 1.3-1.384 2.235-1.838.936-.453 1.994-.67 3.161-.67 2.081 0 3.755.66 4.999 1.989zm15.628-1.294c.947.499 1.673 1.161 2.191 1.986V8.552h5.46v17.533c0 1.618-.32 3.083-.969 4.397-.65 1.314-1.64 2.356-2.972 3.138-1.332.77-2.983 1.161-4.965 1.161-2.642 0-4.777-.619-6.418-1.846-1.64-1.226-2.576-2.887-2.807-4.993h5.394c.165.673.573 1.205 1.211 1.585.639.39 1.42.586 2.367.586 1.123 0 2.025-.315 2.697-.956.671-.64 1.002-1.66 1.002-3.072V23.6c-.529.814-1.266 1.487-2.202 1.998s-2.036.77-3.291.77c-1.465 0-2.796-.369-3.985-1.118s-2.136-1.802-2.829-3.18c-.694-1.38-1.035-2.964-1.035-4.767 0-1.802.341-3.387 1.035-4.755.693-1.368 1.629-2.41 2.829-3.148 1.189-.738 2.52-1.097 3.985-1.097 1.255 0 2.355.25 3.302.76zm1.057 5.102c-.76-.782-1.673-1.162-2.763-1.162s-2.004.38-2.763 1.151c-.76.771-1.134 1.824-1.134 3.16 0 1.335.374 2.41 1.134 3.191.759.793 1.673 1.183 2.763 1.183s2.003-.39 2.763-1.161c.759-.77 1.134-1.835 1.134-3.181s-.375-2.4-1.134-3.18"/><path fill="#22222b" d="m159.011 26.039-4.658-8.323h-1.31v8.323h-5.462V3.975h9.162c1.762 0 3.27.304 4.514.91s2.181 1.442 2.797 2.493c.617 1.062.925 2.232.925 3.533 0 1.463-.418 2.774-1.266 3.923-.837 1.148-2.081 1.972-3.722 2.449l5.176 8.734H159zM153.032 13.9h3.38c1.002 0 1.751-.238 2.247-.726.495-.476.748-1.159.748-2.037s-.253-1.495-.748-1.983c-.507-.477-1.256-.726-2.247-.726h-3.38zm15.216-1.37c.693-1.363 1.629-2.4 2.829-3.136 1.189-.735 2.521-1.092 3.985-1.092q1.883-.002 3.302.757c.947.508 1.674 1.157 2.191 1.979V8.561h5.46v17.491h-5.46v-2.476c-.528.811-1.277 1.47-2.224 1.979-.946.508-2.047.756-3.302.756-1.453 0-2.763-.367-3.963-1.113-1.189-.746-2.136-1.794-2.829-3.167s-1.035-2.952-1.035-4.746.341-3.373 1.035-4.735zm11.173 1.6c-.759-.78-1.673-1.157-2.763-1.157s-2.003.378-2.763 1.145c-.759.768-1.134 1.817-1.134 3.146 0 1.33.375 2.4 1.134 3.178.76.79 1.673 1.179 2.763 1.179s2.004-.39 2.763-1.157c.76-.767 1.134-1.827 1.134-3.167s-.374-2.39-1.134-3.168m10.398-1.643c.693-1.366 1.629-2.407 2.829-3.144 1.189-.738 2.521-1.096 3.985-1.096 1.167 0 2.246.239 3.214.727.969.488 1.729 1.128 2.279 1.952V2.77h5.46v23.271h-5.46v-2.515c-.506.834-1.233 1.507-2.191 2.017s-2.047.759-3.302.759c-1.464 0-2.796-.37-3.985-1.117-1.189-.748-2.136-1.8-2.829-3.178s-1.035-2.96-1.035-4.76.341-3.383 1.035-4.75zm11.173 1.605c-.759-.78-1.673-1.16-2.763-1.16s-2.003.38-2.763 1.15-1.134 1.821-1.134 3.155.375 2.407 1.134 3.188c.76.792 1.673 1.182 2.763 1.182s2.004-.39 2.763-1.16c.76-.77 1.134-1.833 1.134-3.178s-.374-2.396-1.134-3.177m10.398-1.561c.694-1.363 1.63-2.4 2.83-3.136 1.188-.735 2.52-1.092 3.984-1.092q1.882-.002 3.303.757c.947.508 1.673 1.157 2.191 1.979V8.561h5.46v17.491h-5.46v-2.476c-.529.811-1.277 1.47-2.213 1.979-.947.497-2.048.756-3.303.756-1.453 0-2.763-.367-3.962-1.113-1.189-.746-2.136-1.794-2.83-3.167-.693-1.373-1.034-2.952-1.034-4.746s.341-3.373 1.034-4.735zm11.174 1.6c-.76-.78-1.674-1.157-2.763-1.157-1.09 0-2.004.378-2.763 1.145-.76.768-1.134 1.817-1.134 3.146 0 1.33.374 2.4 1.134 3.178.759.79 1.673 1.179 2.763 1.179s2.003-.39 2.763-1.157 1.134-1.827 1.134-3.167-.375-2.39-1.134-3.168m18.323-4.939c.961-.552 2.032-.833 3.203-.833v5.674h-1.502c-1.37 0-2.397.292-3.071.865-.685.573-1.027 1.578-1.027 3.026v8.117h-5.478V8.54h5.478v2.918a7.1 7.1 0 0 1 2.397-2.27"/><path fill="#0076ff" d="M15.36 30.399c-1.79 0-3.56-.304-5.252-.913v-4.837q1.335.163 2.67.163a16.85 16.85 0 0 0 7.867-1.739c3.077-1.695 4.66-4.565 4.725-8.51.044-2.576.077-6.217.088-10.815 6.395 5.522 7.054 15.119 1.472 21.445a15.47 15.47 0 0 1-11.58 5.206zm-9.944-3.608A15.093 15.093 0 0 1 3.658 5.357C7.724.617 14.306-1.186 20.261.792v4.64a16.4 16.4 0 0 0-2.527-.173c-5.033 0-7.879 1.815-9.373 3.337-2.153 2.184-3.197 5.402-3.087 9.543.066 2.543.12 5.456.142 8.662z"/></g><defs><clipPath id="a"><path fill="#fff" d="M0 0h244v35.023H0z"/></clipPath></defs></svg>